<?xml version="1.0" encoding="UTF-8" standalone="no"?>
<!-- Created with Inkscape (http://www.inkscape.org/) -->

<svg
   width="128"
   height="128"
   viewBox="0 0 128 128"
   version="1.1"
   id="svg5"
   inkscape:export-filename="C:\Users\pjaff\Downloads\icon.png"
   inkscape:export-xdpi="96"
   inkscape:export-ydpi="96"
   inkscape:version="1.1.1 (3bf5ae0d25, 2021-09-20)"
   sodipodi:docname="icon.svg"
   xmlns:inkscape="http://www.inkscape.org/namespaces/inkscape"
   xmlns:sodipodi="http://sodipodi.sourceforge.net/DTD/sodipodi-0.dtd"
   xmlns="http://www.w3.org/2000/svg"
   xmlns:svg="http://www.w3.org/2000/svg">
  <sodipodi:namedview
     id="namedview7"
     pagecolor="#ffffff"
     bordercolor="#999999"
     borderopacity="1"
     inkscape:pageshadow="0"
     inkscape:pageopacity="0"
     inkscape:pagecheckerboard="0"
     inkscape:document-units="px"
     showgrid="false"
     inkscape:snap-page="true"
     inkscape:zoom="6.8870097"
     inkscape:cx="20.328126"
     inkscape:cy="91.694368"
     inkscape:window-width="3840"
     inkscape:window-height="2081"
     inkscape:window-x="-11"
     inkscape:window-y="-11"
     inkscape:window-maximized="1"
     inkscape:current-layer="layer1" />
  <defs
     id="defs2">
    <inkscape:path-effect
       effect="spiro"
       id="path-effect4623"
       is_visible="true"
       lpeversion="0" />
    <inkscape:path-effect
       effect="spiro"
       id="path-effect4590"
       is_visible="true"
       lpeversion="0" />
    <inkscape:path-effect
       effect="spiro"
       id="path-effect4539"
       is_visible="true"
       lpeversion="0" />
  </defs>
  <g
     inkscape:label="Calque 1"
     inkscape:groupmode="layer"
     id="layer1">
    <path
       style="fill:none;fill-rule:evenodd;stroke:#000000;stroke-width:0.834415px;stroke-linecap:butt;stroke-linejoin:miter;stroke-opacity:1"
       d="m 19.644679,-106.68958 c 0.05663,-0.0425 0,0.14158 0,0 z"
       id="path1965" />
    <circle
       style="fill:#545454;stroke-width:1.88976;stroke-linecap:round;stroke-linejoin:round;fill-opacity:1"
       id="path992"
       cx="64"
       cy="64"
       r="64" />
    <g
       style="fill:#ffffff"
       id="g932"
       transform="matrix(0.22277238,0,0,0.22277238,9.6658154,9.6657656)">
      <g
         transform="translate(0,-540.36)"
         id="g919"
         style="fill:#ffffff">
	<g
   id="g917"
   style="fill:#ffffff">
		<g
   id="g915"
   style="fill:#ffffff">
			<path
   d="m 76.25,674.822 41.8,19.1 c 1.3,0.6 2.7,0.9 4.1,0.9 2.7,0 5.3,-1.1 7.2,-3 l 20.3,-21 c 3.8,-3.9 3.8,-10 0,-13.9 l -20.3,-21 c -2.9,-3 -7.5,-3.9 -11.3,-2.1 l -41.8,19.1 -41.8,-19.1 c -3.8,-1.8 -8.4,-0.9 -11.3,2.1 l -20.3,21 c -3.8,3.9 -3.8,10 0,13.9 l 20.3,21 c 2.9,3 7.5,3.9 11.3,2.1 z m 43.6,-20 8.7,9 -8.7,8.9 -19.6,-8.9 z m -96.1,9 8.7,-9 19.6,9 -19.6,8.9 z"
   id="path909"
   style="fill:#ffffff" />

			<path
   d="m 484.95,656.922 -20.3,-21 c -3,-3 -7.5,-3.9 -11.4,-2.1 l -41.4,19.1 -41.4,-19.1 c -3.9,-1.8 -8.4,-0.9 -11.4,2.1 l -20.3,21 c -3.8,3.9 -3.8,10 0,13.9 l 20.3,21 c 3,3 7.5,3.9 11.4,2.1 l 41.4,-19.1 41.4,19.1 c 1.4,0.6 2.8,0.9 4.2,0.9 2.7,0 5.3,-1.1 7.2,-3 l 20.3,-21 c 3.8,-3.9 3.8,-10 0,-13.9 z m -116.3,15.8 -8.7,-8.9 8.7,-8.9 19.4,8.9 z m 86.6,0 -19.4,-8.9 19.4,-8.9 8.7,8.9 z"
   id="path911"
   style="fill:#ffffff" />

			<path
   d="m 454.25,745.922 c -7.4,-31.4 -24,-39.1 -36.6,-40.1 -8.3,-0.7 -16,2 -22.1,7.8 -8.7,8.1 -13.3,21.5 -15.9,34.2 h -51.4 c -3.2,-4.6 -7.3,-8.8 -12.5,-12.6 -34.7,-25.5 -108.2,-25.5 -143,0 -5.1,3.8 -9.3,8 -12.5,12.6 h -51.6 c -0.1,-0.6 -0.3,-1.2 -0.4,-1.9 -7.4,-31.4 -24,-39.1 -36.6,-40.1 -8.3,-0.7 -16,2 -22.1,7.8 -18.8,17.6 -18.8,60.4 -18.8,65.3 0,3.2 1.6,6.2 4.3,8.1 l 30.1,21 c 1.7,1.2 3.7,1.8 5.7,1.8 2,0 3.9,-0.6 5.6,-1.7 l 30.9,-21 c 2.7,-1.8 4.3,-4.8 4.4,-8 0,-0.3 0.1,-4.8 -0.3,-11.2 h 41.6 c -0.5,6.2 0.3,12.8 2.6,19.6 1.4,5.9 8.4,33.7 19.6,58 l -37.3,19.2 c -3.3,1.7 -5.4,5.1 -5.4,8.9 v 52 c 0,5.5 4.5,10 10,10 5.5,0 10,-4.5 10,-10 v -45.9 l 32.2,-16.6 c 4.2,6.5 8.7,12.1 13.6,15.9 0.1,0.1 0.2,0.1 0.2,0.2 12.8,9.3 29.3,14 45.8,14 16.5,0 32.9,-4.7 45.8,-14 0.1,-0.1 0.2,-0.1 0.2,-0.2 4.9,-3.8 9.4,-9.3 13.6,-15.9 l 32.2,16.6 v 45.9 c 0,5.5 4.5,10 10,10 5.5,0 10,-4.5 10,-10 v -52 c 0,-3.7 -2.1,-7.2 -5.4,-8.9 l -37.3,-19.2 c 11.2,-24.3 18.1,-52.1 19.6,-58 2.3,-6.8 3.1,-13.4 2.6,-19.6 h 41.6 c -0.4,5.7 -0.4,9.8 -0.3,11.1 0,3.2 1.6,6.2 4.3,8.1 l 30.1,21 c 1.7,1.2 3.7,1.8 5.7,1.8 2,0 3.9,-0.6 5.6,-1.7 l 30.9,-21 c 2.7,-1.8 4.3,-4.8 4.4,-8 -0.2,-0.9 0.2,-16.8 -3.7,-33.3 z m -383.3,41.7 -20.1,-14 c 0.5,-15.2 4,-37.5 12.4,-45.3 2.1,-1.9 4.1,-2.7 6.9,-2.4 16.7,1.3 21.2,31.8 21.7,47.7 z m 242.8,-6.2 c -0.1,0.3 -0.2,0.6 -0.3,1 -6,25.2 -20.8,69.3 -35.3,80.7 -18.4,13.2 -49.4,13.2 -67.8,0 -14.5,-11.4 -29.4,-55.5 -35.3,-80.7 -0.1,-0.3 -0.2,-0.6 -0.3,-1 -4.3,-12.4 -1.1,-22 9.9,-30.1 12.9,-9.5 35.2,-15.2 59.6,-15.2 24.4,0 46.7,5.7 59.6,15.2 11,8.1 14.2,17.6 9.9,30.1 z m 103.1,6.2 -20.1,-14 c 0.5,-15.2 4,-37.5 12.4,-45.3 2.1,-1.9 4.1,-2.7 6.9,-2.4 16.7,1.3 21.2,31.8 21.7,47.7 z"
   id="path913"
   style="fill:#ffffff" />

		</g>

	</g>

</g>
    </g>
  </g>
</svg>
