<?xml version="1.0" encoding="UTF-8" standalone="no"?>
<!-- Created with Inkscape (http://www.inkscape.org/) -->

<svg
   width="64"
   height="64"
   viewBox="0 0 64 64"
   version="1.1"
   id="svg5"
   inkscape:version="1.1.1 (3bf5ae0d25, 2021-09-20)"
   sodipodi:docname="pause.svg"
   xmlns:inkscape="http://www.inkscape.org/namespaces/inkscape"
   xmlns:sodipodi="http://sodipodi.sourceforge.net/DTD/sodipodi-0.dtd"
   xmlns="http://www.w3.org/2000/svg"
   xmlns:svg="http://www.w3.org/2000/svg">
  <sodipodi:namedview
     id="namedview7"
     pagecolor="#2b2b2b"
     bordercolor="#999999"
     borderopacity="1"
     inkscape:pageshadow="0"
     inkscape:pageopacity="0"
     inkscape:pagecheckerboard="0"
     inkscape:document-units="px"
     showgrid="false"
     inkscape:snap-page="true"
     inkscape:zoom="5.6171875"
     inkscape:cx="78.86509"
     inkscape:cy="17.446453"
     inkscape:window-width="3840"
     inkscape:window-height="2054"
     inkscape:window-x="-11"
     inkscape:window-y="-11"
     inkscape:window-maximized="1"
     inkscape:current-layer="layer1" />
  <defs
     id="defs2" />
  <g
     inkscape:label="Calque 1"
     inkscape:groupmode="layer"
     id="layer1">
    <g
       aria-label="⏸️"
       id="text16734"
       style="font-size:18px;line-height:1.25;font-family:Consolas;-inkscape-font-specification:Consolas;fill:#ffffff"
       transform="matrix(3.3774481,0,0,3.3774479,-42.806419,-47.068908)">
      <path
         d="m 18.993526,19.622759 q 0,-0.254883 0.18457,-0.439453 0.18457,-0.19336 0.439453,-0.19336 h 1.265625 q 0.263672,0 0.448242,0.184571 0.18457,0.18457 0.18457,0.448242 v 7.576172 q 0,0.263672 -0.18457,0.448242 -0.18457,0.18457 -0.448242,0.18457 h -1.265625 q -0.254883,0 -0.439453,-0.18457 -0.18457,-0.193359 -0.18457,-0.448242 z m 4.420898,-0.632813 q -0.263672,0 -0.448242,0.184571 -0.184571,0.18457 -0.184571,0.448242 v 7.576172 q 0,0.263672 0.184571,0.448242 0.18457,0.18457 0.448242,0.18457 h 1.256836 q 0.263672,0 0.448242,-0.18457 0.18457,-0.18457 0.18457,-0.448242 v -7.576172 q 0,-0.263672 -0.18457,-0.448242 -0.18457,-0.184571 -0.448242,-0.184571 z M 12.67419,17.091509 q 0,-0.650391 0.246093,-1.22168 0.246094,-0.580078 0.676758,-1.001953 0.430664,-0.430664 1.001953,-0.676758 0.580078,-0.254883 1.230469,-0.254883 h 12.638672 q 0.650391,0 1.22168,0.254883 0.580078,0.246094 1.001953,0.676758 0.430664,0.421875 0.676758,1.001953 0.254882,0.571289 0.254882,1.22168 v 12.638672 q 0,0.65039 -0.254882,1.221679 -0.246094,0.580079 -0.676758,1.010743 -0.421875,0.430664 -1.001953,0.676757 -0.571289,0.246094 -1.22168,0.246094 H 15.829463 q -0.650391,0 -1.230469,-0.246094 Q 14.027705,32.393267 13.597041,31.962603 13.166377,31.531939 12.920283,30.95186 12.67419,30.380571 12.67419,29.730181 Z m 3.155273,-1.889649 q -0.395508,0 -0.738281,0.149414 -0.342774,0.149415 -0.597656,0.404297 -0.254883,0.254883 -0.404297,0.597657 -0.149414,0.342773 -0.149414,0.738281 v 12.638672 q 0,0.395508 0.149414,0.738281 0.149414,0.342773 0.404297,0.597656 0.254882,0.254883 0.597656,0.404297 0.342773,0.149414 0.738281,0.149414 h 12.638672 q 0.395508,0 0.738281,-0.149414 0.342774,-0.149414 0.597656,-0.404297 0.254883,-0.254883 0.404297,-0.597656 0.149414,-0.342773 0.149414,-0.738281 V 17.091509 q 0,-0.395508 -0.149414,-0.738281 Q 30.058955,16.010454 29.804072,15.755571 29.54919,15.500689 29.206416,15.351274 28.863643,15.20186 28.468135,15.20186 Z"
         id="path16816"
         style="fill:#ffffff" />
    </g>
  </g>
</svg>
