<?xml version="1.0" encoding="UTF-8" standalone="no"?>
<!-- Created with Inkscape (http://www.inkscape.org/) -->

<svg
   width="64"
   height="64"
   viewBox="0 0 64 64"
   version="1.1"
   id="svg5"
   inkscape:version="1.1.1 (3bf5ae0d25, 2021-09-20)"
   sodipodi:docname="play.svg"
   xmlns:inkscape="http://www.inkscape.org/namespaces/inkscape"
   xmlns:sodipodi="http://sodipodi.sourceforge.net/DTD/sodipodi-0.dtd"
   xmlns="http://www.w3.org/2000/svg"
   xmlns:svg="http://www.w3.org/2000/svg">
  <sodipodi:namedview
     id="namedview7"
     pagecolor="#2b2b2b"
     bordercolor="#999999"
     borderopacity="1"
     inkscape:pageshadow="0"
     inkscape:pageopacity="0"
     inkscape:pagecheckerboard="0"
     inkscape:document-units="px"
     showgrid="false"
     inkscape:snap-page="true"
     inkscape:zoom="5.6171875"
     inkscape:cx="78.86509"
     inkscape:cy="17.446453"
     inkscape:window-width="3840"
     inkscape:window-height="2054"
     inkscape:window-x="-11"
     inkscape:window-y="-11"
     inkscape:window-maximized="1"
     inkscape:current-layer="layer1" />
  <defs
     id="defs2" />
  <g
     inkscape:label="Calque 1"
     inkscape:groupmode="layer"
     id="layer1">
    <path
       d="m 49.068644,32 q 0,0.564006 -0.296844,1.068644 -0.267156,0.474954 -0.771798,0.771802 L 22.411874,48.623378 q -0.534322,0.296844 -1.068644,0.296844 -0.860854,0 -1.513918,-0.62338 -0.623375,-0.65306 -0.623375,-1.513914 V 17.217065 q 0,-0.860854 0.623375,-1.484229 0.653064,-0.653064 1.513918,-0.653064 0.534322,0 1.068644,0.296844 l 25.588128,14.782932 q 0.504638,0.296844 0.771798,0.801484 0.296844,0.474954 0.296844,1.038962 z M 53.343226,0 q 2.196662,0 4.12616,0.86085072 Q 59.42857,1.6920204 60.85343,3.1465658 62.307976,4.5714266 63.139146,6.53061 64,8.4601088 64,10.656771 V 53.34323 q 0,2.196658 -0.860854,4.126156 -0.83117,1.959188 -2.285716,3.413732 -1.42486,1.454546 -3.384044,2.285712 Q 55.539888,64 53.343226,64 H 10.656771 Q 8.4601111,64 6.5009273,63.16883 4.5714281,62.337664 3.1168826,60.883118 1.6623373,59.428574 0.83116827,57.469386 -4.033086e-7,55.539888 -4.033086e-7,53.34323 V 10.656771 q 0,-2.1966622 0.8311686733086,-4.126161 Q 1.6623373,4.5714266 3.1168826,3.1465658 4.5714281,1.6920204 6.5009273,0.86085072 8.4601111,0 10.656771,0 Z M 4.2745821,53.34323 q 0,1.335806 0.5046382,2.493504 0.5046382,1.157698 1.3654916,2.018552 0.8608536,0.860856 2.0185532,1.365494 1.1576994,0.504638 2.4935059,0.504638 h 42.686455 q 1.335808,0 2.49351,-0.504638 1.157698,-0.504638 2.018552,-1.365494 0.860854,-0.860854 1.365492,-2.018552 0.504638,-1.157698 0.504638,-2.493504 V 10.656771 q 0,-1.335808 -0.504638,-2.493506 Q 58.716142,7.0055636 57.855288,6.1447094 56.994434,5.2838588 55.836736,4.7792208 54.679034,4.2745826 53.343226,4.2745826 H 10.656771 q -1.3358065,0 -2.4935059,0.5046382 Q 7.0055655,5.2838588 6.1447119,6.1447094 5.2838585,7.0055636 4.7792203,8.163265 4.2745821,9.320963 4.2745821,10.656771 Z"
       style="font-size:18px;line-height:1.25;font-family:sans-serif;-inkscape-font-specification:sans-serif;fill:#ffffff;stroke-width:3.37744"
       id="path15293" />
  </g>
</svg>
