<?xml version="1.0" encoding="UTF-8" standalone="no"?>
<!-- Uploaded to: SVG Repo, www.svgrepo.com, Generator: SVG Repo Mixer Tools -->

<svg
   fill="#000000"
   width="800px"
   height="800px"
   viewBox="0 0 24 24"
   version="1.1"
   id="svg4"
   sodipodi:docname="processing.svg"
   inkscape:version="1.1.1 (3bf5ae0d25, 2021-09-20)"
   xmlns:inkscape="http://www.inkscape.org/namespaces/inkscape"
   xmlns:sodipodi="http://sodipodi.sourceforge.net/DTD/sodipodi-0.dtd"
   xmlns="http://www.w3.org/2000/svg"
   xmlns:svg="http://www.w3.org/2000/svg">
  <defs
     id="defs8" />
  <sodipodi:namedview
     id="namedview6"
     pagecolor="#ffffff"
     bordercolor="#999999"
     borderopacity="1"
     inkscape:pageshadow="0"
     inkscape:pageopacity="0"
     inkscape:pagecheckerboard="0"
     showgrid="false"
     inkscape:zoom="0.89875"
     inkscape:cx="399.44367"
     inkscape:cy="399.44367"
     inkscape:window-width="3840"
     inkscape:window-height="2054"
     inkscape:window-x="-11"
     inkscape:window-y="-11"
     inkscape:window-maximized="1"
     inkscape:current-layer="svg4" />
  <path
     d="M23,12A11,11,0,0,1,4.963,20.451l-.256.256A1,1,0,0,1,4,21a.987.987,0,0,1-.383-.076A1,1,0,0,1,3,20V18a1,1,0,0,1,1-1H6a1,1,0,0,1,.707,1.707l-.322.322A9,9,0,1,0,3,12a9.107,9.107,0,0,0,.18,1.8,1,1,0,0,1-1.96.4A11,11,0,1,1,23,12ZM12,5a1,1,0,0,0-1,1v6a1,1,0,0,0,1,1h5a1,1,0,0,0,0-2H13V6A1,1,0,0,0,12,5Z"
     id="path2"
     style="fill:#ffffff;fill-opacity:1" />
</svg>
