<?xml version="1.0" encoding="UTF-8" standalone="no"?>
<!-- Uploaded to: SVG Repo, www.svgrepo.com, Generator: SVG Repo Mixer Tools -->

<svg
   fill="#000000"
   width="800px"
   height="800px"
   viewBox="0 0 52 52"
   enable-background="new 0 0 52 52"
   xml:space="preserve"
   version="1.1"
   id="svg4"
   sodipodi:docname="refresh.svg"
   inkscape:version="1.1.1 (3bf5ae0d25, 2021-09-20)"
   xmlns:inkscape="http://www.inkscape.org/namespaces/inkscape"
   xmlns:sodipodi="http://sodipodi.sourceforge.net/DTD/sodipodi-0.dtd"
   xmlns="http://www.w3.org/2000/svg"
   xmlns:svg="http://www.w3.org/2000/svg"><defs
   id="defs8" /><sodipodi:namedview
   id="namedview6"
   pagecolor="#ffffff"
   bordercolor="#999999"
   borderopacity="1"
   inkscape:pageshadow="0"
   inkscape:pageopacity="0"
   inkscape:pagecheckerboard="0"
   showgrid="false"
   inkscape:zoom="0.449375"
   inkscape:cx="476.21697"
   inkscape:cy="1571.0709"
   inkscape:window-width="1620"
   inkscape:window-height="2774"
   inkscape:window-x="5749"
   inkscape:window-y="-5"
   inkscape:window-maximized="1"
   inkscape:current-layer="svg4" />
<path
   d="m 48.78096,1.546782 h -3.333772 c -0.889005,0 -1.666885,0.77788 -1.666885,1.6668856 v 7.7787994 c 0,1.000131 -0.555629,1.444634 -1.333509,0.77788 v 0 C 42.113417,11.325844 41.78004,10.992467 41.335537,10.65909 35.779252,5.1028046 28.000453,2.7691648 19.999402,4.3249247 17.221259,4.8805532 14.554242,5.9918102 12.220603,7.5475701 5.4419345,11.992598 1.5525349,19.215769 1.4414091,26.994568 1.3302834,32.995357 3.6639233,38.996145 7.8867,43.330047 c 4.445028,4.66728 10.445816,7.223171 16.891107,7.223171 5.667411,0 11.001445,-2.000263 15.224222,-5.556285 0.77788,-0.666755 0.77788,-1.778012 0.111126,-2.444766 l -2.33364,-2.33364 c -0.555629,-0.555628 -1.55576,-0.666754 -2.222514,-0.111125 -4.000526,3.333771 -9.445685,4.667279 -14.890845,3.333771 -1.444634,-0.333377 -2.889268,-1.000132 -4.222777,-1.778011 -6.334165,-3.8894 -9.3345589,-11.223697 -7.5565476,-18.557993 0.3333771,-1.444634 1.0001313,-2.889269 1.7780116,-4.222777 3.111519,-5.44516 8.556679,-8.445554 14.335216,-8.445554 4.445028,0 8.667805,1.778012 11.779324,4.889531 0.555629,0.444503 1.000132,1.000132 1.333509,1.55576 0.333377,0.889006 -0.444503,1.333509 -1.444634,1.333509 h -7.7788 c -0.889005,0 -1.666885,0.77788 -1.666885,1.666885 v 3.444897 c 0,0.889006 0.666754,1.55576 1.55576,1.55576 h 20.336004 c 0.77788,0 1.444634,-0.666754 1.444634,-1.444634 V 3.2136676 C 50.447845,2.324662 49.669965,1.546782 48.78096,1.546782 Z"
   id="path2"
   style="fill:#ffffff;fill-opacity:1;stroke-width:1.11126" />
</svg>
