<?xml version="1.0" encoding="UTF-8" standalone="no"?>
<!-- Uploaded to: SVG Repo, www.svgrepo.com, Generator: SVG Repo Mixer Tools -->

<svg
   fill="#000000"
   width="800px"
   height="800px"
   viewBox="0 0 24 24"
   version="1.1"
   id="svg4"
   sodipodi:docname="save-svgrepo-com.svg"
   inkscape:version="1.1.1 (3bf5ae0d25, 2021-09-20)"
   xmlns:inkscape="http://www.inkscape.org/namespaces/inkscape"
   xmlns:sodipodi="http://sodipodi.sourceforge.net/DTD/sodipodi-0.dtd"
   xmlns="http://www.w3.org/2000/svg"
   xmlns:svg="http://www.w3.org/2000/svg">
  <defs
     id="defs8" />
  <sodipodi:namedview
     id="namedview6"
     pagecolor="#ffffff"
     bordercolor="#999999"
     borderopacity="1"
     inkscape:pageshadow="0"
     inkscape:pageopacity="0"
     inkscape:pagecheckerboard="0"
     showgrid="false"
     inkscape:zoom="0.449375"
     inkscape:cx="364.95132"
     inkscape:cy="313.76912"
     inkscape:window-width="1620"
     inkscape:window-height="2774"
     inkscape:window-x="5749"
     inkscape:window-y="-5"
     inkscape:window-maximized="1"
     inkscape:current-layer="svg4" />
  <path
     d="M 23.803894,22.49235 V 7.2968039 A 1.3115438,1.3115438 0 0 0 23.419612,6.3695424 L 17.630458,0.58038804 A 1.3115438,1.3115438 0 0 0 16.703196,0.1961057 H 1.5076495 A 1.3115438,1.3115438 0 0 0 0.1961057,1.5076495 V 22.49235 a 1.3115438,1.3115438 0 0 0 1.3115438,1.311544 H 22.49235 A 1.3115438,1.3115438 0 0 0 23.803894,22.49235 Z M 8.0653686,6.7538248 h 5.2461754 a 1.3115438,1.3115438 0 0 1 0,2.6230876 H 8.0653686 a 1.3115438,1.3115438 0 0 1 0,-2.6230876 z M 17.246175,21.180807 H 6.7538248 v -5.246176 a 1.3115438,1.3115438 0 0 1 1.3115438,-1.311543 h 7.8692624 a 1.3115438,1.3115438 0 0 1 1.311544,1.311543 z"
     id="path2"
     style="fill:#ffffff;fill-opacity:1;stroke-width:1.31154" />
</svg>
