<?xml version="1.0" encoding="UTF-8" standalone="no"?>
<!-- Created with Inkscape (http://www.inkscape.org/) -->

<svg
   width="64"
   height="64"
   viewBox="0 0 64 64"
   version="1.1"
   id="svg5"
   inkscape:version="1.1.1 (3bf5ae0d25, 2021-09-20)"
   sodipodi:docname="step.svg"
   xmlns:inkscape="http://www.inkscape.org/namespaces/inkscape"
   xmlns:sodipodi="http://sodipodi.sourceforge.net/DTD/sodipodi-0.dtd"
   xmlns="http://www.w3.org/2000/svg"
   xmlns:svg="http://www.w3.org/2000/svg">
  <sodipodi:namedview
     id="namedview7"
     pagecolor="#2b2b2b"
     bordercolor="#999999"
     borderopacity="1"
     inkscape:pageshadow="0"
     inkscape:pageopacity="0"
     inkscape:pagecheckerboard="0"
     inkscape:document-units="px"
     showgrid="false"
     inkscape:snap-page="true"
     inkscape:zoom="5.6171875"
     inkscape:cx="78.86509"
     inkscape:cy="17.446453"
     inkscape:window-width="3840"
     inkscape:window-height="2054"
     inkscape:window-x="-11"
     inkscape:window-y="-11"
     inkscape:window-maximized="1"
     inkscape:current-layer="layer1" />
  <defs
     id="defs2" />
  <g
     inkscape:label="Calque 1"
     inkscape:groupmode="layer"
     id="layer1">
    <g
       aria-label="⏯️"
       id="text21556"
       style="font-size:18px;line-height:1.25;font-family:Consolas;-inkscape-font-specification:Consolas;fill:#ffffff"
       transform="matrix(3.3774479,0,0,3.3774479,-74.673738,-41.657473)">
      <path
         d="m 31.338032,21.808619 q 0,0.123046 -0.04395,0.237304 -0.03516,0.114258 -0.123046,0.202149 l -3.708985,3.884765 q -0.18457,0.202149 -0.457031,0.202149 -0.263672,0 -0.448242,-0.184571 -0.184571,-0.18457 -0.184571,-0.448242 v -7.787109 q 0,-0.263672 0.184571,-0.448242 0.18457,-0.184571 0.448242,-0.184571 0.272461,0 0.457031,0.202149 l 3.708985,3.884765 q 0.08789,0.08789 0.123046,0.202149 0.04395,0.114258 0.04395,0.237305 z m 0.878906,-4.104493 q 0,-0.131836 0.08789,-0.219726 0.09668,-0.09668 0.228515,-0.09668 h 1.265625 q 0.123047,0 0.210938,0.09668 0.09668,0.09668 0.09668,0.219726 v 8.208985 q 0,0.123047 -0.09668,0.219726 -0.08789,0.09668 -0.210938,0.09668 h -1.265625 q -0.131836,0 -0.228515,-0.08789 -0.08789,-0.09668 -0.08789,-0.228515 z M 36.32143,17.38772 q 0.131836,0 0.219727,0.09668 0.09668,0.08789 0.09668,0.219726 v 8.208985 q 0,0.131836 -0.09668,0.228515 -0.08789,0.08789 -0.219727,0.08789 h -1.265625 q -0.131836,0 -0.228515,-0.08789 -0.08789,-0.09668 -0.08789,-0.228515 v -8.208985 q 0,-0.131836 0.08789,-0.219726 0.09668,-0.09668 0.228515,-0.09668 z m 1.582031,-5.053711 q 0.650391,0 1.22168,0.254883 0.580078,0.246094 1.001953,0.676758 0.430664,0.421875 0.676758,1.001953 0.254883,0.571289 0.254883,1.22168 v 12.638671 q 0,0.650391 -0.254883,1.22168 -0.246094,0.580078 -0.676758,1.010742 -0.421875,0.430664 -1.001953,0.676758 -0.571289,0.246094 -1.22168,0.246094 H 25.26479 q -0.650391,0 -1.230469,-0.246094 -0.571289,-0.246094 -1.001953,-0.676758 -0.430664,-0.430664 -0.676758,-1.010742 -0.246094,-0.571289 -0.246094,-1.22168 V 15.489283 q 0,-0.650391 0.246094,-1.22168 0.246094,-0.580078 0.676758,-1.001953 0.430664,-0.430664 1.001953,-0.676758 0.580078,-0.254883 1.230469,-0.254883 z m -14.52832,15.793945 q 0,0.395508 0.149414,0.738282 0.149414,0.342773 0.404297,0.597656 0.254883,0.254883 0.597656,0.404297 0.342774,0.149414 0.738282,0.149414 h 12.638671 q 0.395508,0 0.738282,-0.149414 0.342773,-0.149414 0.597656,-0.404297 0.254883,-0.254883 0.404297,-0.597656 0.149414,-0.342774 0.149414,-0.738282 V 15.489283 q 0,-0.395508 -0.149414,-0.738282 -0.149414,-0.342773 -0.404297,-0.597656 -0.254883,-0.254883 -0.597656,-0.404297 -0.342774,-0.149414 -0.738282,-0.149414 H 25.26479 q -0.395508,0 -0.738282,0.149414 -0.342773,0.149414 -0.597656,0.404297 -0.254883,0.254883 -0.404297,0.597656 -0.149414,0.342774 -0.149414,0.738282 z"
         id="path23486"
         style="fill:#ffffff" />
    </g>
  </g>
</svg>
