<?xml version="1.0" encoding="UTF-8" standalone="no"?>
<!-- Created with Inkscape (http://www.inkscape.org/) -->

<svg
   width="64"
   height="64"
   viewBox="0 0 64 64"
   version="1.1"
   id="svg5"
   inkscape:version="1.1.1 (3bf5ae0d25, 2021-09-20)"
   sodipodi:docname="stop.svg"
   xmlns:inkscape="http://www.inkscape.org/namespaces/inkscape"
   xmlns:sodipodi="http://sodipodi.sourceforge.net/DTD/sodipodi-0.dtd"
   xmlns="http://www.w3.org/2000/svg"
   xmlns:svg="http://www.w3.org/2000/svg">
  <sodipodi:namedview
     id="namedview7"
     pagecolor="#2b2b2b"
     bordercolor="#999999"
     borderopacity="1"
     inkscape:pageshadow="0"
     inkscape:pageopacity="0"
     inkscape:pagecheckerboard="0"
     inkscape:document-units="px"
     showgrid="false"
     inkscape:snap-page="true"
     inkscape:zoom="5.6171875"
     inkscape:cx="78.86509"
     inkscape:cy="17.446453"
     inkscape:window-width="3840"
     inkscape:window-height="2054"
     inkscape:window-x="-11"
     inkscape:window-y="-11"
     inkscape:window-maximized="1"
     inkscape:current-layer="layer1" />
  <defs
     id="defs2" />
  <g
     inkscape:label="Calque 1"
     inkscape:groupmode="layer"
     id="layer1">
    <g
       aria-label="⏹️"
       id="text18285"
       style="font-size:18px;line-height:1.25;font-family:Consolas;-inkscape-font-specification:Consolas;fill:#ffffff"
       transform="matrix(3.3774479,0,0,3.3774479,-84.294061,-58.493041)">
      <path
         d="m 38.537018,21.739609 q 0.193359,0 0.36914,0.0791 0.175782,0.07031 0.298829,0.202149 0.131836,0.123047 0.202148,0.298828 0.0791,0.175781 0.0791,0.369141 v 8.208984 q 0,0.202148 -0.0791,0.37793 -0.07031,0.166992 -0.202148,0.298828 -0.123047,0.123047 -0.298829,0.202148 -0.175781,0.07031 -0.36914,0.07031 h -8.208985 q -0.202148,0 -0.377929,-0.07031 -0.166992,-0.0791 -0.298828,-0.202148 -0.123047,-0.131836 -0.202149,-0.298828 -0.07031,-0.175782 -0.07031,-0.37793 v -8.208984 q 0,-0.19336 0.07031,-0.369141 0.0791,-0.175781 0.202149,-0.298828 0.131836,-0.131836 0.298828,-0.202149 0.175781,-0.0791 0.377929,-0.0791 z m 2.214844,-4.420899 q 0.65039,0 1.221679,0.254883 0.580078,0.246094 1.001953,0.676758 0.430664,0.421875 0.676758,1.001953 0.254883,0.571289 0.254883,1.22168 v 12.638672 q 0,0.65039 -0.254883,1.221679 -0.246094,0.580078 -0.676758,1.010743 -0.421875,0.430664 -1.001953,0.676757 -0.571289,0.246094 -1.221679,0.246094 H 28.11319 q -0.650391,0 -1.230469,-0.246094 -0.571289,-0.246093 -1.001953,-0.676757 -0.430664,-0.430665 -0.676758,-1.010743 -0.246094,-0.571289 -0.246094,-1.221679 V 20.473984 q 0,-0.650391 0.246094,-1.22168 0.246094,-0.580078 0.676758,-1.001953 0.430664,-0.430664 1.001953,-0.676758 0.580078,-0.254883 1.230469,-0.254883 z M 26.223541,33.112656 q 0,0.395507 0.149414,0.738281 0.149414,0.342773 0.404297,0.597656 0.254883,0.254883 0.597656,0.404297 0.342774,0.149414 0.738282,0.149414 h 12.638672 q 0.395507,0 0.738281,-0.149414 0.342773,-0.149414 0.597656,-0.404297 0.254883,-0.254883 0.404297,-0.597656 0.149414,-0.342774 0.149414,-0.738281 V 20.473984 q 0,-0.395508 -0.149414,-0.738281 -0.149414,-0.342774 -0.404297,-0.597657 -0.254883,-0.254883 -0.597656,-0.404297 -0.342774,-0.149414 -0.738281,-0.149414 H 28.11319 q -0.395508,0 -0.738282,0.149414 -0.342773,0.149414 -0.597656,0.404297 -0.254883,0.254883 -0.404297,0.597657 -0.149414,0.342773 -0.149414,0.738281 z"
         id="path18287"
         style="fill:#ffffff" />
    </g>
  </g>
</svg>
